<svg id="Capa_1" enable-background="new 0 0 502 502" height="512" viewBox="0 0 502 502" width="512" xmlns="http://www.w3.org/2000/svg" xmlns:xlink="http://www.w3.org/1999/xlink"><linearGradient id="lg1"><stop offset="0" stop-color="#ec6f80"/><stop offset="1" stop-color="#eca0aa"/></linearGradient><linearGradient id="SVGID_1_" gradientUnits="userSpaceOnUse" x1="422.141" x2="422.141" xlink:href="#lg1" y1="335.003" y2="284.554"/><linearGradient id="SVGID_2_" gradientUnits="userSpaceOnUse" x1="393.353" x2="464.422" xlink:href="#lg1" y1="356.894" y2="356.894"/><linearGradient id="lg2"><stop offset="0" stop-color="#ffbe9d"/><stop offset="1" stop-color="#ffd3bd"/></linearGradient><linearGradient id="SVGID_3_" gradientUnits="userSpaceOnUse" x1="65.153" x2="12.475" xlink:href="#lg2" y1="215.574" y2="215.574"/><linearGradient id="SVGID_4_" gradientTransform="matrix(-1 0 0 1 502 0)" gradientUnits="userSpaceOnUse" x1="65.153" x2="12.475" xlink:href="#lg2" y1="215.574" y2="215.574"/><linearGradient id="lg3"><stop offset="0" stop-color="#6ac65e"/><stop offset="1" stop-color="#afd986"/></linearGradient><linearGradient id="SVGID_5_" gradientUnits="userSpaceOnUse" x1="138.689" x2="45.212" xlink:href="#lg3" y1="417.401" y2="417.401"/><linearGradient id="SVGID_6_" gradientTransform="matrix(-1 0 0 1 502 0)" gradientUnits="userSpaceOnUse" x1="138.689" x2="45.212" xlink:href="#lg3" y1="417.401" y2="417.401"/><linearGradient id="SVGID_7_" gradientUnits="userSpaceOnUse" x1="251" x2="251" y1="277.031" y2="471.318"><stop offset="0" stop-color="#74d2e8"/><stop offset="1" stop-color="#baeaf5"/></linearGradient><linearGradient id="SVGID_8_" gradientTransform="matrix(-1 0 0 1 506.599 0)" gradientUnits="userSpaceOnUse" x1="252.681" x2="252.681" y1="401.848" y2="446.697"><stop offset="0" stop-color="#f9edaf"/><stop offset="1" stop-color="#fffcdd"/></linearGradient><linearGradient id="SVGID_9_" gradientUnits="userSpaceOnUse" x1="253.918" x2="253.918" xlink:href="#lg1" y1="338.368" y2="502.446"/><linearGradient id="SVGID_10_" gradientUnits="userSpaceOnUse" x1="251" x2="251" xlink:href="#lg2" y1="576.041" y2="224.999"/><linearGradient id="SVGID_11_" gradientUnits="userSpaceOnUse" x1="253.918" x2="253.918" y1="144.769" y2="4.148"><stop offset="0" stop-color="#4e5660"/><stop offset="1" stop-color="#64768d"/></linearGradient><g><path d="m392.442 362.511c-2.815 0-5.663-.792-8.195-2.447-6.934-4.534-8.879-13.83-4.345-20.764 14.033-21.461 47.061-42.84 67.926-48.604 7.987-2.206 16.247 2.479 18.453 10.464s-2.479 16.246-10.464 18.452c-14.941 4.128-41.321 21.6-50.806 36.105-2.878 4.403-7.675 6.794-12.569 6.794z" fill="url(#SVGID_1_)"/><path d="m375.23 384.899c-4.555 0-9.054-2.066-12.001-5.987-4.978-6.622-3.645-16.025 2.977-21.004 30.245-22.736 67.776-29.806 90.749-28.951 8.278.308 14.74 7.268 14.432 15.547-.309 8.279-7.263 14.771-15.548 14.432-18.841-.704-49.296 6.182-71.606 22.953-2.702 2.029-5.866 3.01-9.003 3.01z" fill="url(#SVGID_2_)"/><path d="m109.909 209.364c0-31.17-24.201-56.438-54.056-56.438s-54.055 25.268-54.055 56.438c0 42.661 33.951 68.859 63.805 68.859s44.306-37.689 44.306-68.859z" fill="url(#SVGID_3_)"/><path d="m392.091 209.364c0-31.17 24.202-56.438 54.056-56.438s54.056 25.268 54.056 56.438c0 42.661-33.951 68.859-63.805 68.859s-44.307-37.689-44.307-68.859z" fill="url(#SVGID_4_)"/><path d="m151.659 332.803c-66.865 11.254-109.105 74.621-119.29 139.116-2.495 15.793 9.715 30.081 25.704 30.081h33.893l109.44-169.197z" fill="url(#SVGID_5_)"/><path d="m350.341 332.803c66.865 11.255 109.105 74.622 119.291 139.116 2.494 15.793-9.716 30.081-25.704 30.081h-33.893l-109.44-169.197z" fill="url(#SVGID_6_)"/><path d="m410.034 502c0-107.776-71.202-195.146-159.034-195.146s-159.034 87.37-159.034 195.146z" fill="url(#SVGID_7_)"/><path d="m368.361 327.569c63.435 100.901-28.357 152.224-114.443 152.224s-177.878-51.322-114.443-152.224z" fill="url(#SVGID_8_)"/><path d="m329.923 405.483c-3.018-8.041-11.706-12.474-19.956-10.087-18.604 5.38-38.413 8.284-58.967 8.284-48.735 0-93.288-16.319-127.484-43.289-4.533 13.576-5.922 26.006-4.723 37.284 38.358 25.326 84.18 39.005 132.207 39.005 23.37 0 46.217-3.242 67.937-9.487 9.297-2.673 14.385-12.653 10.986-21.71z" fill="#f2e07e"/><path d="m253.918 502c-54.866 0-119.836-19.522-146.365-67.535-13.126-23.757-21.505-63.639 13.122-118.716 6.528-10.382 20.237-13.509 30.62-6.981 10.384 6.528 13.509 20.237 6.981 30.62-18.545 29.499-22.531 54.26-11.847 73.597 14.739 26.677 57.936 44.6 107.49 44.6s92.751-17.923 107.49-44.6c10.684-19.337 6.698-44.098-11.848-73.597-6.528-10.384-3.402-24.092 6.981-30.62 10.384-6.527 24.092-3.402 30.62 6.981 34.627 55.078 26.248 94.959 13.122 118.716-26.533 48.02-91.511 67.535-146.366 67.535z" fill="url(#SVGID_9_)"/><ellipse cx="251" cy="225.512" fill="url(#SVGID_10_)" rx="195.146" ry="178.167"/><g><ellipse cx="163.114" cy="248.865" fill="#eaadcd" rx="14.936" ry="12.003"/><ellipse cx="338.886" cy="248.865" fill="#eaadcd" rx="14.936" ry="12.003"/><circle cx="188.721" cy="219.247" fill="#fff" r="29.618"/><ellipse cx="200.687" cy="219.247" fill="#3b3b44" rx="17.652" ry="17.652" transform="matrix(.099 -.995 .995 .099 -37.269 397.354)"/><circle cx="313.279" cy="219.247" fill="#fff" r="29.618"/><g fill="#3b3b44"><ellipse cx="325.182" cy="219.247" rx="17.652" ry="17.652" transform="matrix(.16 -.987 .987 .16 56.678 505.111)"/><ellipse cx="251" cy="241.699" rx="13.252" ry="17.352"/></g></g><path d="m218.496 131.438c-13.926-1.591-23.926-14.171-22.335-28.097 1.591-13.925 14.173-23.915 28.096-22.335 25.892 2.961 44.611-16.503 33.623-47.023-4.748-13.188 2.095-27.728 15.283-32.475 13.188-4.749 27.728 2.094 32.476 15.282 23.704 65.84-23.795 121.87-87.143 114.648z" fill="url(#SVGID_11_)"/><path d="m146.685 413.42c-.083-.146-.176-.288-.257-.434-6.236-11.286-7.465-24.422-3.728-39.267-13.625-8.317-26.038-18.156-36.949-29.255-5.409 13.276-8.231 25.447-9.196 36.493 15.247 12.997 32.099 23.871 50.13 32.463z" fill="#e05d6f"/></g></svg>